REM COMMENT "Generated by IcecastMetadataRecorder https://github.com/eshaz/icecast-metadata-js"
REM BR "16"
REM METAINT "64"
REM DATE "2020-07-29T21:16:11.222Z"
TITLE "isics-all"
FILE "isics-all.mp3" WAVE
  TRACK 1 AUDIO
    TITLE "2020-07-29T21:26:54.398Z TO:7300 Department of Transportation - District 1 Highway Helper - Des Moines Area FROM:14966"
    INDEX 01 10:43:13
  TRACK 2 AUDIO
    TITLE "2020-07-29T21:26:56.486Z TO:177 Polk County - Westcom Fire 2 FROM:1641"
    INDEX 01 10:45:20
  TRACK 3 AUDIO
    TITLE "2020-07-29T21:26:58.574Z TO:1101 Polk County - Westcom Law Enforcement 1 FROM:1004"
    INDEX 01 10:47:26
  TRACK 4 AUDIO
    TITLE "2020-07-29T21:27:02.030Z TO:24605 Dallas County Law 1 FROM:2500070"
    INDEX 01 10:50:61
  TRACK 5 AUDIO
    TITLE "2020-07-29T21:27:10.454Z TO:177 Polk County - Westcom Fire 2 FROM:1906"
    INDEX 01 10:59:17
  TRACK 6 AUDIO
    TITLE "2020-07-29T21:27:12.542Z TO:24631 Dallas County Fire/EMS Operations FROM:2520043"
    INDEX 01 11:01:24
  TRACK 7 AUDIO
    TITLE "2020-07-29T21:27:15.350Z TO:177 Polk County - Westcom Fire 2 FROM:1007"
    INDEX 01 11:04:10
  TRACK 8 AUDIO
    TITLE "2020-07-29T21:27:17.438Z TO:1101 Polk County - Westcom Law Enforcement 1 FROM:1643"
    INDEX 01 11:06:16
  TRACK 9 AUDIO
    TITLE "2020-07-29T21:27:24.422Z TO:24605 Dallas County Law 1 FROM:2559981"
    INDEX 01 11:13:15
  TRACK 10 AUDIO
    TITLE "END"
    INDEX 01 11:16:55